<svg width="22" height="22" viewBox="0 0 22 22" fill="none" xmlns="http://www.w3.org/2000/svg">
<path d="M9.62565 18.2418V3.7585C9.62565 2.3835 9.03898 1.8335 7.58148 1.8335H3.87815C2.42065 1.8335 1.83398 2.3835 1.83398 3.7585V18.2418C1.83398 19.6168 2.42065 20.1668 3.87815 20.1668H7.58148C9.03898 20.1668 9.62565 19.6168 9.62565 18.2418Z" stroke="#292D32" stroke-width="1.5" stroke-linecap="round" stroke-linejoin="round"/>
<path d="M20.1667 7.81016V3.6485C20.1667 2.356 19.58 1.8335 18.1225 1.8335H14.4192C12.9617 1.8335 12.375 2.356 12.375 3.6485V7.801C12.375 9.10266 12.9617 9.616 14.4192 9.616H18.1225C19.58 9.62516 20.1667 9.10266 20.1667 7.81016Z" stroke="#292D32" stroke-width="1.5" stroke-linecap="round" stroke-linejoin="round"/>
<path opacity="0.4" d="M20.1667 18.1225V14.4192C20.1667 12.9617 19.58 12.375 18.1225 12.375H14.4192C12.9617 12.375 12.375 12.9617 12.375 14.4192V18.1225C12.375 19.58 12.9617 20.1667 14.4192 20.1667H18.1225C19.58 20.1667 20.1667 19.58 20.1667 18.1225Z" stroke="#292D32" stroke-width="1.5" stroke-linecap="round" stroke-linejoin="round"/>
</svg>
