<svg width="22" height="22" viewBox="0 0 22 22" fill="none" xmlns="http://www.w3.org/2000/svg">
<path d="M18.3337 8.79984C18.3337 5.13317 16.867 3.6665 13.2003 3.6665H8.80033C5.13366 3.6665 3.66699 5.13317 3.66699 8.79984V13.1998C3.66699 16.8665 5.13366 18.3332 8.80033 18.3332" stroke="#292D32" stroke-width="1.5" stroke-linecap="round" stroke-linejoin="round"/>
<path d="M14.9878 7.33317C14.4837 6.6915 13.6403 6.4165 12.3753 6.4165H9.62533C7.33366 6.4165 6.41699 7.33317 6.41699 9.62484V12.3748C6.41699 13.6398 6.69199 14.4832 7.32449 14.9873" stroke="#292D32" stroke-width="1.5" stroke-linecap="round" stroke-linejoin="round"/>
<path opacity="0.4" d="M7.34277 3.66683V1.8335" stroke="#292D32" stroke-width="1.5" stroke-linecap="round" stroke-linejoin="round"/>
<path opacity="0.4" d="M11 3.66683V1.8335" stroke="#292D32" stroke-width="1.5" stroke-linecap="round" stroke-linejoin="round"/>
<path opacity="0.4" d="M14.667 3.66683V1.8335" stroke="#292D32" stroke-width="1.5" stroke-linecap="round" stroke-linejoin="round"/>
<path opacity="0.4" d="M18.333 7.3335H20.1663" stroke="#292D32" stroke-width="1.5" stroke-linecap="round" stroke-linejoin="round"/>
<path opacity="0.4" d="M7.34277 18.3335V20.1668" stroke="#292D32" stroke-width="1.5" stroke-linecap="round" stroke-linejoin="round"/>
<path opacity="0.4" d="M1.83301 7.3335H3.66634" stroke="#292D32" stroke-width="1.5" stroke-linecap="round" stroke-linejoin="round"/>
<path opacity="0.4" d="M1.83301 11H3.66634" stroke="#292D32" stroke-width="1.5" stroke-linecap="round" stroke-linejoin="round"/>
<path opacity="0.4" d="M1.83301 14.6665H3.66634" stroke="#292D32" stroke-width="1.5" stroke-linecap="round" stroke-linejoin="round"/>
<path opacity="0.4" d="M15.3179 17.041C16.1228 17.041 16.7754 16.3884 16.7754 15.5835C16.7754 14.7785 16.1228 14.126 15.3179 14.126C14.5129 14.126 13.8604 14.7785 13.8604 15.5835C13.8604 16.3884 14.5129 17.041 15.3179 17.041Z" stroke="#292D32" stroke-width="1.5" stroke-miterlimit="10" stroke-linecap="round" stroke-linejoin="round"/>
<path d="M10.459 16.0049V15.1524C10.459 14.6482 10.8715 14.2357 11.3757 14.2357C12.2557 14.2357 12.6132 13.6124 12.1732 12.8516C11.9165 12.4116 12.0723 11.8432 12.5123 11.5957L13.3465 11.1099C13.7315 10.8807 14.2265 11.0182 14.4557 11.4032L14.5107 11.4949C14.9507 12.2557 15.6657 12.2557 16.1057 11.4949L16.1607 11.4032C16.3898 11.0182 16.8848 10.8899 17.2698 11.1099L18.104 11.5957C18.544 11.8524 18.6998 12.4116 18.4432 12.8516C18.0032 13.6124 18.3607 14.2357 19.2407 14.2357C19.7448 14.2357 20.1573 14.6482 20.1573 15.1524V16.0049C20.1573 16.5091 19.7448 16.9216 19.2407 16.9216C18.3607 16.9216 18.0032 17.5449 18.4432 18.3057C18.6998 18.7457 18.544 19.3141 18.104 19.5616L17.2698 20.0474C16.8848 20.2766 16.3898 20.1391 16.1607 19.7541L16.1057 19.6624C15.6657 18.9016 14.9507 18.9016 14.5107 19.6624L14.4557 19.7541C14.2265 20.1391 13.7315 20.2674 13.3465 20.0474L12.5123 19.5616C12.0723 19.3049 11.9165 18.7457 12.1732 18.3057C12.6132 17.5449 12.2557 16.9216 11.3757 16.9216C10.8715 16.9307 10.459 16.5182 10.459 16.0049Z" stroke="#292D32" stroke-width="1.5" stroke-miterlimit="10" stroke-linecap="round" stroke-linejoin="round"/>
</svg>
