<svg width="22" height="22" viewBox="0 0 22 22" fill="none" xmlns="http://www.w3.org/2000/svg">
<path opacity="0.4" d="M16.6278 19.8182C15.8211 20.0565 14.8678 20.1665 13.7494 20.1665H8.24943C7.13109 20.1665 6.17776 20.0565 5.37109 19.8182C5.57276 17.4349 8.02026 15.5557 10.9994 15.5557C13.9786 15.5557 16.4261 17.4349 16.6278 19.8182Z" stroke="#292D32" stroke-width="1.5" stroke-linecap="round" stroke-linejoin="round"/>
<path d="M20.1673 8.25016V13.7502C20.1673 17.2152 19.1223 19.1127 16.629 19.8185C15.8223 20.0568 14.869 20.1668 13.7507 20.1668H8.25065C7.13232 20.1668 6.17898 20.0568 5.37232 19.8185C2.87898 19.1127 1.83398 17.2152 1.83398 13.7502V8.25016C1.83398 3.66683 3.66732 1.8335 8.25065 1.8335H13.7507C18.334 1.8335 20.1673 3.66683 20.1673 8.25016Z" stroke="#292D32" stroke-width="1.5" stroke-linecap="round" stroke-linejoin="round"/>
<path opacity="0.4" d="M14.2821 9.69819C14.2821 11.5132 12.8154 12.989 11.0004 12.989C9.18542 12.989 7.71875 11.5132 7.71875 9.69819C7.71875 7.88319 9.18542 6.4165 11.0004 6.4165C12.8154 6.4165 14.2821 7.88319 14.2821 9.69819Z" stroke="#292D32" stroke-width="1.5" stroke-linecap="round" stroke-linejoin="round"/>
</svg>
